# xmcd
#
# Track frame offsets:
#	150
#	16916
#	32112
#	52564
#	69048
#	88273
#	109739
#	125471
#	146468
#	165975
#
# Disc length: 2457 seconds
#
# Revision: 1
# Processed by: cddbd v1.5.2PL0 Copyright (c) Steve Scherf et al.
# Submitted via: EZCDAudioConverter 8.0.2.1
#
DISCID=7109970a
DTITLE=Various Artist - Tình Khúc Thế Giới
DYEAR=2004
DGENRE=Miscellaneous
TTITLE0=Purity - Dancing Queen
TTITLE1=Kenny Thái - Thú đau thương
TTITLE2=Philip Huy - Cup Of Life
TTITLE3=Diễm Liên, Nguyên Khang - Khi xưa ta bé
TTITLE4=Thanh Hà - Lời hứa hư vô
TTITLE5=Cardin - Modern Talking Medley
TTITLE6=Lâm Thúy Vân - Tượng đá và chút suy tư
TTITLE7=Gia Huy - Triệu đóa hồng
TTITLE8=Hồ Ngọ Như - Ôi tình yêu
TTITLE9=Thanh Trúc - Tình đến rồi đi
EXTD=
EXTT0=
EXTT1=
EXTT2=
EXTT3=
EXTT4=
EXTT5=
EXTT6=
EXTT7=
EXTT8=
EXTT9=
PLAYORDER=
